<?xml version="1.0" encoding="UTF-8" standalone="no"?>
<!-- Created with Inkscape (http://www.inkscape.org/) -->

<svg
   version="1.1"
   id="svg1"
   width="447"
   height="447"
   viewBox="0 0 447 447"
   sodipodi:docname="logo.svg"
   inkscape:version="1.4.4 (dcaf3e7d9e, 2026-05-05)"
   xmlns:inkscape="http://www.inkscape.org/namespaces/inkscape"
   xmlns:sodipodi="http://sodipodi.sourceforge.net/DTD/sodipodi-0.dtd"
   xmlns="http://www.w3.org/2000/svg"
   xmlns:svg="http://www.w3.org/2000/svg">
  <defs
     id="defs1" />
  <sodipodi:namedview
     id="namedview1"
     pagecolor="#ffffff"
     bordercolor="#000000"
     borderopacity="0.25"
     inkscape:showpageshadow="2"
     inkscape:pageopacity="0.0"
     inkscape:pagecheckerboard="0"
     inkscape:deskcolor="#d1d1d1"
     inkscape:zoom="1.9440716"
     inkscape:cx="232.75892"
     inkscape:cy="223.5"
     inkscape:window-width="1882"
     inkscape:window-height="1080"
     inkscape:window-x="0"
     inkscape:window-y="0"
     inkscape:window-maximized="1"
     inkscape:current-layer="g1" />
  <g
     inkscape:groupmode="layer"
     inkscape:label="Image"
     id="g1">
    <path
       style="fill:#000000"
       d="m 274.40839,326.8674 c 0.31056,-0.31056 0.13172,-1.79337 -0.39743,-3.29514 -0.82835,-2.35092 -1.51133,-2.73049 -4.91304,-2.73049 -2.86268,0 -4.04053,-0.45165 -4.27618,-1.63972 -0.38647,-1.94853 2.90167,-2.24034 44.77895,-3.97393 15.125,-0.62613 27.59213,-1.21133 27.70474,-1.30045 0.1126,-0.0891 0.49867,-3.74491 0.85793,-8.12397 0.35926,-4.37906 0.98303,-11.78693 1.38616,-16.46193 0.40313,-4.675 0.54722,-9.0213 0.32021,-9.65844 -0.50271,-1.41093 -6.09805,-3.84589 -6.92872,-3.01522 -0.32755,0.32755 -1.22337,6.32338 -1.99072,13.32406 -0.76735,7.00069 -1.51749,12.85082 -1.66696,13.0003 -0.44434,0.44433 -56.91023,2.45504 -57.32401,2.04126 -0.20894,-0.20894 4.62078,-10.68761 10.73271,-23.28593 6.11194,-12.59832 14.26783,-29.43103 18.1242,-37.40603 9.03289,-18.68005 20.91172,-43.11354 33.78882,-69.5 13.08825,-26.81912 18.99564,-39.44603 18.99564,-40.60272 0,-0.54736 -18.05884,-0.8128 -44.73767,-0.65758 l -44.73768,0.2603 -1.16932,14 c -0.64313,7.7 -1.32368,16.25 -1.51233,19 l -0.343,5 h 4 4 l 1.22817,-9.2974 c 0.67549,-5.11357 1.80049,-11.54733 2.5,-14.29723 l 1.27183,-4.99983 26.75003,-0.20277 c 14.71251,-0.11152 26.75001,-0.0614 26.75,0.11131 -2e-5,0.17274 -1.17318,2.87274 -2.60704,6 -1.43385,3.12725 -4.41762,9.73592 -6.63058,14.68592 -2.21297,4.95 -5.98982,13.21359 -8.393,18.36353 -2.40317,5.14994 -4.36941,9.50457 -4.36941,9.67697 0,0.28883 -2.87572,6.63382 -9.95264,21.9595 -1.52383,3.3 -5.7949,12.75 -9.49127,21 -19.64878,43.8546 -26.86437,59.5 -27.44115,59.5 -0.35156,0 -2.55411,-7.5375 -4.89455,-16.75 -2.34045,-9.2125 -5.85296,-22.6 -7.80559,-29.75 -1.95263,-7.15 -4.18915,-15.7 -4.97003,-19 -0.78089,-3.3 -2.11795,-8.475 -2.97125,-11.5 -0.8533,-3.025 -3.75685,-14.05 -6.45232,-24.5 -15.86351,-61.50073 -15.10096,-59 -17.99106,-59 -2.78744,0 -1.82341,-4.36398 -9.49891,43 -2.49563,15.4 -4.99459,30.475 -5.55325,33.5 -0.97327,5.27005 -2.52845,14.64169 -5.47616,33 -2.88596,17.97375 -11.52066,69.63146 -12.07674,72.25 -0.55,2.58996 -0.89946,2.75 -6.00454,2.75 h -5.42054 v 3.52418 3.52418 l 16.75,-0.27418 16.75,-0.27418 0.31336,-3.25 0.31336,-3.25 h -7.10867 -7.10868 l 0.5946,-3.25 c 0.32704,-1.7875 1.13493,-6.85 1.79532,-11.25 l 1.20071,-8 6.5,-0.33266 c 3.575,-0.18297 14.17556,-0.0257 23.55679,0.34944 l 17.0568,0.6821 2.6932,11.29676 c 1.48127,6.21322 2.69321,11.70721 2.69321,12.20888 0,0.50166 -2.3625,0.84555 -5.25,0.7642 -2.8875,-0.0814 -5.8125,0.053 -6.5,0.29867 -1.35373,0.48365 -1.7224,5.40825 -0.5,6.67885 0.82964,0.86235 40.15654,-0.0195 41.0577,-0.92061 z m -65.6148,-38.2737 -14.30711,-0.30754 0.62446,-4.72219 c 1.26411,-9.55938 8.8574,-55.39847 12.91616,-77.9721 l 4.18035,-23.24991 4.83036,20.24991 c 2.6567,11.13744 5.63278,23.1749 6.61349,26.7499 0.98072,3.575 4.06616,15.95 6.85653,27.5 2.79036,11.55 5.52777,22.38195 6.08313,24.071 0.55535,1.68905 1.00973,4.27655 1.00973,5.75 v 2.679 l -7.25,-0.22026 c -3.9875,-0.12115 -13.6882,-0.35866 -21.5571,-0.52781 z m -46.03547,24.07916 9.65744,-0.6196 0.39533,-3.38631 c 0.21744,-1.86247 0.18409,-3.59756 -0.0741,-3.85575 -0.25819,-0.25818 -3.84111,-0.46943 -7.96204,-0.46943 h -7.4926 l 0.63534,-27.25 c 0.34944,-14.9875 1.12658,-50.875 1.72698,-79.75 0.60041,-28.875 1.27205,-53.0625 1.49255,-53.75 0.29255,-0.91217 3.78766,-1.25 12.93229,-1.25 h 12.53138 v 3.85331 c 0,2.11932 0.28911,6.61932 0.64246,10 0.58626,5.60908 0.84865,6.14669 3,6.14669 h 2.35754 v -14.03683 -14.03683 l -38.75,0.59907 c -21.3125,0.32949 -39.7625,0.80463 -41,1.05588 -2.20007,0.44668 -2.25,0.7573 -2.25,13.99813 v 13.54131 l 3.75,-0.31036 3.75,-0.31037 0.5,-9.5 0.5,-9.5 11.14215,-0.28174 11.14214,-0.28174 0.59017,16.28174 c 0.32459,8.95496 1.0498,39.23174 1.61158,67.28174 0.56178,28.05 1.29811,56.94556 1.63628,64.21236 l 0.61487,13.21236 -9.8686,0.28764 -9.86859,0.28764 -0.31113,4.90519 -0.31113,4.9052 13.81113,-0.67985 c 7.59612,-0.37392 18.15698,-0.95867 23.46856,-1.29945 z"
       id="path1"
       sodipodi:nodetypes="sssssssssssssssssscsscccsscsssssssssssssssssssscccccccccsscsscssscssscsscssssscssscssscsssscssscccssscccccccssscccccss" />
  </g>
</svg>
