<?xml version="1.0" encoding="UTF-8" standalone="no"?>
<!-- Generator: Adobe Illustrator 23.0.3, SVG Export Plug-In . SVG Version: 6.00 Build 0)  -->

<svg
   version="1.1"
   id="Layer_1"
   x="0px"
   y="0px"
   viewBox="0 0 249.99999 250"
   xml:space="preserve"
   sodipodi:docname="pedidosyalogo.svg"
   inkscape:version="1.4.4 (dcaf3e7d9e, 2026-05-05)"
   width="250"
   height="250"
   xmlns:inkscape="http://www.inkscape.org/namespaces/inkscape"
   xmlns:sodipodi="http://sodipodi.sourceforge.net/DTD/sodipodi-0.dtd"
   xmlns="http://www.w3.org/2000/svg"
   xmlns:svg="http://www.w3.org/2000/svg"
   xmlns:rdf="http://www.w3.org/1999/02/22-rdf-syntax-ns#"
   xmlns:cc="http://creativecommons.org/ns#"
   xmlns:dc="http://purl.org/dc/elements/1.1/"><defs
   id="defs11" /><sodipodi:namedview
   id="namedview11"
   pagecolor="#ffffff"
   bordercolor="#000000"
   borderopacity="0.25"
   inkscape:showpageshadow="2"
   inkscape:pageopacity="0.0"
   inkscape:pagecheckerboard="0"
   inkscape:deskcolor="#d1d1d1"
   inkscape:zoom="0.9675959"
   inkscape:cx="14.985595"
   inkscape:cy="55.291677"
   inkscape:window-width="1882"
   inkscape:window-height="1080"
   inkscape:window-x="0"
   inkscape:window-y="0"
   inkscape:window-maximized="1"
   inkscape:current-layer="g11" />
<style
   type="text/css"
   id="style1">
	.st0{fill:#FFFFFF;}
</style>
<title
   id="title1">Asset 1</title>
<g
   id="g11"
   transform="translate(2.1923618,194.79338)">
	
	<path
   class="st0"
   d="m 160.3847,-194.10206 h -2.82305 l -12.46849,-0.24893 H 2.0585509 c -2.35254303,0 -3.9993231,1.99145 -3.9993231,4.23184 v 23.89744 c 0,26.38676 17.6440732,40.82479 49.4034032,40.82479 l 112.922069,0.24894 c 11.99796,0 21.6434,10.20619 21.6434,22.90171 0,12.695516 -9.64544,22.901715 -21.6434,22.901715 v 0 H 33.817881 c -1.882033,0 -3.528814,1.244658 -3.999324,3.236112 L -0.0587378,49.353117 c -0.23525433,1.244658 0,2.738248 0.70576294,3.733975 0.70576296,0.995727 1.88203436,1.742522 3.29356036,1.742522 H 44.169071 c 15.056275,0 22.349159,-13.193379 23.99594,-20.163461 l 11.762714,-45.554497 h 80.692235 c 47.75661,0 86.57357,-41.073727 86.57357,-91.606856 -0.23525,-50.53313 -39.05221,-91.60686 -86.80883,-91.60686 z"
   id="path11"
   style="fill:#ffffff;fill-opacity:1;stroke-width:2.41996"
   sodipodi:nodetypes="sccsssccsscsccsssccscs" />
</g>
<metadata
   id="metadata11"><rdf:RDF><cc:Work
       rdf:about=""><dc:title>Asset 1</dc:title></cc:Work></rdf:RDF></metadata></svg>
